HIERARCHY
ROOT Hips
{
  OFFSET 265.287 66.7526 -254.649
  CHANNELS 6 Xposition Yposition Zposition Zrotation Xrotation Yrotation
  JOINT LeftUpLeg
  {
    OFFSET 8.64259 1.95398 -2.38835
    CHANNELS 3 Zrotation Xrotation Yrotation
    JOINT LeftLeg
    {
      OFFSET 43.7702 0 0
      CHANNELS 3 Zrotation Xrotation Yrotation
      JOINT LeftFoot
      {
        OFFSET 40.6238 0 0
        CHANNELS 3 Zrotation Xrotation Yrotation
        JOINT LeftToeBase
        {
          OFFSET 12.7242 0 0
          CHANNELS 3 Zrotation Xrotation Yrotation
          End Site
          {
            OFFSET 0 0 0
          }
        }
      }
    }
  }
  JOINT RightUpLeg
  {
    OFFSET -8.2249 1.95398 -2.59336
    CHANNELS 3 Zrotation Xrotation Yrotation
    JOINT RightLeg
    {
      OFFSET 43.5653 0 0
      CHANNELS 3 Zrotation Xrotation Yrotation
      JOINT RightFoot
      {
        OFFSET 40.6238 0 0
        CHANNELS 3 Zrotation Xrotation Yrotation
        JOINT RightToeBase
        {
          OFFSET 12.7242 0 0
          CHANNELS 3 Zrotation Xrotation Yrotation
          End Site
          {
            OFFSET 0 0 0
          }
        }
      }
    }
  }
  JOINT Spine
  {
    OFFSET 0.165834 0.87714 6.61349
    CHANNELS 3 Zrotation Xrotation Yrotation
    JOINT Spine1
    {
      OFFSET 7.38963 1.71661e-005 0
      CHANNELS 3 Zrotation Xrotation Yrotation
      JOINT Spine2
      {
        OFFSET 11.9445 1.14441e-005 0
        CHANNELS 3 Zrotation Xrotation Yrotation
        JOINT Spine3
        {
          OFFSET 14.7254 4.19617e-005 0
          CHANNELS 3 Zrotation Xrotation Yrotation
          JOINT Spine4
          {
            OFFSET 10.9679 0 0
            CHANNELS 3 Zrotation Xrotation Yrotation
            JOINT RightShoulder
            {
              OFFSET 2.46616 -1.6653 3.69651
              CHANNELS 3 Zrotation Xrotation Yrotation
              JOINT RightArm
              {
                OFFSET 13.0012 0 0
                CHANNELS 3 Zrotation Xrotation Yrotation
                JOINT RightForeArm
                {
                  OFFSET 28.7848 1.52588e-005 0
                  CHANNELS 3 Zrotation Xrotation Yrotation
                  JOINT RightHand
                  {
                    OFFSET 26.5688 1.52588e-005 0
                    CHANNELS 3 Zrotation Xrotation Yrotation
                    End Site
                    {
                      OFFSET 0 0 0
                    }
                  }
                }
              }
            }
            JOINT LeftShoulder
            {
              OFFSET 2.38034 -1.29275 -3.7523
              CHANNELS 3 Zrotation Xrotation Yrotation
              JOINT LeftArm
              {
                OFFSET 16.3182 6.10351e-005 0
                CHANNELS 3 Zrotation Xrotation Yrotation
                JOINT LeftForeArm
                {
                  OFFSET 27.0901 0 0
                  CHANNELS 3 Zrotation Xrotation Yrotation
                  JOINT LeftHand
                  {
                    OFFSET 24.5451 1.52588e-005 0
                    CHANNELS 3 Zrotation Xrotation Yrotation
                    End Site
                    {
                      OFFSET 0 0 0
                    }
                  }
                }
              }
            }
            JOINT Neck
            {
              OFFSET 5.0226 -0.0266342 0
              CHANNELS 3 Zrotation Xrotation Yrotation
              JOINT Head
              {
                OFFSET 6.69364 2.86102e-005 0
                CHANNELS 3 Zrotation Xrotation Yrotation
                End Site
                {
                  OFFSET 0 0 0
                }
              }
            }
          }
        }
      }
    }
  }
}
MOTION
Frames:	6
Frame Time:	0.0416667
-23.0436 89.3055 26.6861 92.867 52.4292 86.7314 177.887 40.0781 87.1159 -67.7538 18.6636 2.13199 47.2076 -3.68811 5.2444 47.3617 -5.4874 3.57167 173.482 20.5868 90.8707 -57.8668 -13.764 0.172382 64.8611 -0.731186 7.3084 53.584 -3.05942 4.36271 0.130983 10.4596 -89.9318 5.95318 0.290587 0.124912 -5.71773 0.295787 0.111989 -28.253 0.239607 0.206469 -8.24034 0.239605 0.206463 100.556 -48.9453 -84.7085 23.7773 -9.3639 -6.40142 -4.84347 -2.37549 -51.4364 -10.286 0.138563 -7.00635 -90.0643 -54.6687 79.3496 -12.1107 11.655 -2.72898 0.961273 -0.881119 -20.0731 13.0248 -0.493936 -7.39389 17.9801 11.9595 -12.5463 -12.8898 12.8451 30.3515 
-36.3444 88.9679 41.3607 90.0673 56.8128 91.1453 173.252 35.4442 93.9336 -89.2057 16.8586 2.38549 49.4242 -1.66024 14.2535 43.6599 -4.58813 0.0519548 172.526 31.5868 93.0489 -51.2881 -15.416 3.15757 67.0021 -4.51366 -5.70787 38.2265 -1.44312 2.57419 -0.273154 10.2705 -90.2072 6.33158 -0.633231 -0.386208 -5.33927 -0.649613 -0.35796 -27.8748 -0.487898 -0.55867 -7.86211 -0.487903 -0.558674 99.7585 -51.3567 -85.8565 25.6925 -6.12535 0.208151 -11.8122 -15.8763 -41.6195 -12.6222 -0.31659 -2.34066 -89.3993 -53.7683 80.1279 -5.59557 5.06026 -17.0159 2.17362 -4.16328 -27.705 18.8018 -0.891769 -8.65473 18.1394 17.7932 -15.8989 -22.1226 15.8117 38.3374 
-51.5378 93.2065 55.9869 83.9071 56.3296 94.3243 174.822 26.0434 91.08 -75.2798 19.458 4.01389 52.2668 -0.800156 11.8001 45.013 -5.13724 -3.38959 177.608 34.2145 86.0916 -22.8546 -13.8565 0.904539 41.7648 11.3417 17.3705 32.1957 -0.53141 -0.539173 -0.52832 10.2041 -89.764 6.47049 -0.955192 0.496755 -5.20024 -0.932391 0.53831 -27.7381 -1.06033 0.186688 -7.72546 -1.06034 0.186684 99.2792 -49.8481 -86.6784 31.7527 -11.7246 6.25959 -3.88143 -7.67436 -37.1408 -8.00124 -0.0237976 -5.02067 -89.3904 -53.2073 80.0346 -0.29253 -1.1277 -23.9376 7.44928 -3.75497 -51.6748 19.1917 -1.10406 -9.69605 21.8664 25.0211 -19.4551 -33.0693 18.1158 48.6683 
-66.4135 93.5588 69.1656 81.8087 49.3143 95.3445 178.379 20.2288 87.7403 -55.9544 24.1524 4.2785 49.9962 -3.06865 4.49212 52.1216 -7.72415 -4.08547 175.29 38.7593 85.9078 -38.6005 -14.893 0.936592 40.4232 10.7238 16.7244 51.6927 -3.45582 -2.01241 0.116637 10.0792 -89.4851 6.71031 0.452695 0.997491 -4.96096 0.496156 0.976594 -27.4927 0.132009 1.08741 -7.48002 0.132019 1.08741 98.0074 -46.4586 -88.9337 33.1094 -13.881 3.14236 -1.02099 -5.48969 -34.118 -10.0105 0.0134309 -5.65348 -89.1389 -53.8018 80.51 -0.0486816 -1.18988 -22.4391 9.70452 -3.89646 -66.0984 24.1806 -0.983843 -8.15717 18.5927 32.3652 -17.9729 -38.8919 19.8572 55.5466 
-80.8541 88.9821 81.9512 85.2392 46.5582 94.2197 178.447 24.9241 85.8799 -56.781 28.3056 4.41995 64.9752 6.7447 19.9794 50.5436 -6.86373 -0.60297 174.486 37.9696 85.7531 -82.914 -16.2283 -2.41372 46.3729 7.31317 16.0872 49.704 -2.86253 2.31789 0.573644 9.87506 -89.6741 7.11973 1.28579 0.585877 -4.55066 1.31033 0.528709 -27.0886 1.05025 0.945245 -7.07599 1.05026 0.945247 98.0778 -42.4255 -89.1859 33.6403 -11.2647 -0.670155 0.0457892 -1.47116 -37.1965 -11.5475 -0.135257 -3.96465 -89.0394 -57.4846 81.3007 -5.08308 3.34944 -14.7247 8.00551 -2.15916 -45.4869 20.2038 -1.12008 -9.66448 10.6482 37.1355 -14.7333 -40.9403 20.522 59.9477 
-94.2854 88.5442 94.4767 87.2938 45.4381 91.2672 177.603 31.4508 83.1699 -48.8994 26.8716 4.93787 63.5511 6.39002 28.2245 43.3466 -4.58762 -3.71814 177.962 21.9476 85.4022 -85.8797 -25.3052 -4.22309 48.7181 6.74277 14.053 56.2169 -3.39463 4.3589 1.07398 9.83728 -89.5013 7.18961 2.35962 0.876103 -4.47942 2.39589 0.771351 -27.0252 1.98723 1.54494 -7.01259 1.98722 1.54493 98.5674 -41.0439 -88.4595 31.7224 -12.9913 -4.64171 0.230902 -1.08688 -39.2033 -12.0718 0.0295144 -5.65864 -90.3706 -62.5391 80.3874 -5.41147 10.3425 -4.07192 2.62746 1.67706 -23.7444 17.3168 -0.472146 -6.56871 6.43606 36.796 -10.7928 -39.4689 20.3907 58.4438 
